<svg width="1024" height="1024" viewBox="0 0 1024 1024" fill="none" xmlns="http://www.w3.org/2000/svg">
  <defs>
    <linearGradient id="bg" x1="168" y1="96" x2="856" y2="928" gradientUnits="userSpaceOnUse">
      <stop stop-color="#232936"/>
      <stop offset="0.55" stop-color="#111821"/>
      <stop offset="1" stop-color="#0b1017"/>
    </linearGradient>
    <linearGradient id="edge" x1="180" y1="64" x2="844" y2="964" gradientUnits="userSpaceOnUse">
      <stop stop-color="#7e8aa3"/>
      <stop offset="0.46" stop-color="#2b3444"/>
      <stop offset="1" stop-color="#05080d"/>
    </linearGradient>
    <linearGradient id="metal" x1="300" y1="150" x2="760" y2="870" gradientUnits="userSpaceOnUse">
      <stop stop-color="#ffffff"/>
      <stop offset="0.2" stop-color="#cfd6df"/>
      <stop offset="0.5" stop-color="#8e99aa"/>
      <stop offset="0.75" stop-color="#f4f7fb"/>
      <stop offset="1" stop-color="#747f8e"/>
    </linearGradient>
    <linearGradient id="blue" x1="350" y1="330" x2="640" y2="660" gradientUnits="userSpaceOnUse">
      <stop stop-color="#79e6ff"/>
      <stop offset="0.5" stop-color="#2aa7ff"/>
      <stop offset="1" stop-color="#596dff"/>
    </linearGradient>
    <filter id="shadow" x="-20%" y="-20%" width="140%" height="140%" color-interpolation-filters="sRGB">
      <feDropShadow dx="0" dy="28" stdDeviation="34" flood-color="#000000" flood-opacity="0.55"/>
    </filter>
    <filter id="soft" x="-25%" y="-25%" width="150%" height="150%" color-interpolation-filters="sRGB">
      <feDropShadow dx="0" dy="16" stdDeviation="18" flood-color="#000000" flood-opacity="0.45"/>
    </filter>
  </defs>

  <rect x="56" y="40" width="912" height="912" rx="208" fill="url(#edge)" filter="url(#shadow)"/>
  <rect x="64" y="50" width="896" height="896" rx="198" fill="url(#bg)"/>
  <path d="M180 109C214 78 264 64 336 64H684C808 64 920 160 920 318V687C920 773 890 845 836 886C884 837 904 771 904 694V322C904 174 798 81 679 81H333C264 81 215 91 180 109Z" fill="white" opacity="0.13"/>

  <g filter="url(#soft)">
    <rect x="483" y="250" width="58" height="220" rx="29" fill="url(#metal)"/>
    <rect x="483" y="554" width="58" height="178" rx="29" fill="url(#metal)"/>
    <rect x="275" y="483" width="196" height="58" rx="29" fill="url(#metal)"/>
    <rect x="553" y="483" width="196" height="58" rx="29" fill="url(#metal)"/>

    <circle cx="512" cy="512" r="121" fill="url(#blue)"/>
    <circle cx="512" cy="512" r="67" fill="#101820"/>

    <circle cx="512" cy="228" r="75" fill="url(#metal)"/>
    <circle cx="512" cy="228" r="39" fill="#111821"/>

    <circle cx="235" cy="512" r="76" fill="url(#metal)"/>
    <circle cx="235" cy="512" r="39" fill="#111821"/>

    <circle cx="789" cy="512" r="76" fill="url(#metal)"/>
    <circle cx="789" cy="512" r="39" fill="#111821"/>

    <circle cx="512" cy="782" r="75" fill="url(#metal)"/>
    <circle cx="512" cy="782" r="39" fill="#111821"/>
  </g>

  <circle cx="467" cy="454" r="32" fill="white" opacity="0.13"/>
  <circle cx="512" cy="512" r="123" stroke="white" stroke-opacity="0.22" stroke-width="4"/>
</svg>
